<svg version="1.1" xmlns="http://www.w3.org/2000/svg" xmlns:xlink="http://www.w3.org/1999/xlink" xmlns:i="http://ns.adobe.com/AdobeIllustrator/10.0/" xmlns:sketch="http://www.bohemiancoding.com/sketch/ns" height="100%" width="100%" x="0px" y="0px" viewBox="0 0 640 480" xml:space="preserve" preserveAspectRatio="xMidYMid meet" class="">
   {{text2Gradient}}
   <rect x="0px" y="0px" width="100%" height="100%" fill="#6c53a7" fill-opacity="0"></rect>
   <g class="logo-container-box logoContainerBox" transform="scale(0.99) translate(3.232338491112273,2.4242424242424363)">
      <g class="containerBody" transform="scale(1.12) translate(-145.66570390973777,-25.714285714285722)">
         <g class="sampleIconBox" transform="scale(1) translate(0,0)">
            <g class="sampleIcons_1" transform="scale(1.3761467889908257) translate(325.5466666666667,119.89949836730958)" fill="#ffffff">
               <path d="M14.657,12.059c0,1.013-0.821,1.833-1.833,1.833s-1.833-0.821-1.833-1.833s0.821-1.833,1.833-1.833  S14.657,11.046,14.657,12.059z M7.99,10.225c-1.013,0-1.833,0.821-1.833,1.833s0.821,1.833,1.833,1.833s1.833-0.821,1.833-1.833  S9.002,10.225,7.99,10.225z M17.657,10.225c-1.013,0-1.833,0.821-1.833,1.833s0.821,1.833,1.833,1.833s1.833-0.821,1.833-1.833  S18.669,10.225,17.657,10.225z M97.406,10.559H28.99c-0.829,0-1.5,0.671-1.5,1.5s0.671,1.5,1.5,1.5h68.416c0.83,0,1.5-0.671,1.5-1.5  S98.236,10.559,97.406,10.559z M99,53.184H67.322v-28.5H99V53.184z M96,27.683H70.322v22.5H96V27.683z M109,10.517v68.667  c0,2.761-2.238,5-5,5h-5H67.322h-2.014H50.322v-3h11.986v-53.5H13v2.934c-1.226,0.247-2.277,0.951-3,1.916v-7.849h55.309v56.5h2.014  v-26.75H99v26.75h5c1.104,0,2-0.897,2-2V18.517H3v60.667c0,1.103,0.897,2,2,2h2.99v3H5c-2.761,0-5-2.239-5-5V10.517  c0-2.761,2.239-5,5-5h99C106.762,5.517,109,7.755,109,10.517z M96,57.434H70.322v23.75H96V57.434z M106,10.517c0-1.103-0.896-2-2-2  H5c-1.103,0-2,0.897-2,2v5h103V10.517z M48.072,37.171v61.313c0,2.761-2.238,5-5,5H15.156c-2.761,0-5-2.239-5-5V37.171  c0-2.761,2.239-5,5-5h27.916C45.834,32.171,48.072,34.41,48.072,37.171z M13.156,37.171v3.596h31.916v-3.596c0-1.103-0.896-2-2-2  H15.156C14.053,35.171,13.156,36.068,13.156,37.171z M39.322,90.017V75.93H18.823v14.086H39.322z M42.322,72.93v17.461h2.75V43.767  H13.156v46.625h2.667V72.93H42.322z M45.072,98.484v-5.092H13.156v5.092c0,1.103,0.897,2,2,2h27.916  C44.176,100.484,45.072,99.587,45.072,98.484z M29.115,94.808c-1.289,0-2.334,1.045-2.334,2.333s1.045,2.333,2.334,2.333  c1.288,0,2.332-1.045,2.332-2.333S30.403,94.808,29.115,94.808z M27.281,38.767h3.666c0.277,0,0.5-0.224,0.5-0.5s-0.223-0.5-0.5-0.5  h-3.666c-0.276,0-0.5,0.224-0.5,0.5S27.005,38.767,27.281,38.767z M42.322,71.017H15.823v-22.75h26.499V71.017z M39.322,51.267  H18.823v16.75h20.499V51.267z"></path>
            </g>
         </g>
         <g class="sampleTexts_1" transform="scale(1) translate(0.000012207031261368684,28.56999969482422)">
            <g class="logo--name svgLogoName_1 logoNameBox" transform="scale(1) translate(263.47999148368837,240)" fill="#ffffff">
               <path d="M23.34-57.14L16.98-57.14L12.29-17.54L7.65-57.14L1.28-57.14L8.01 0L16.62 0L23.34-57.14ZM13.25-9.53L12.57-15.33L17.42-56.62L18.78-56.62L13.25-9.53ZM8.45-0.52L1.84-56.62L3.20-56.62L9.81-0.52L8.45-0.52ZM36.04-57.14L29.67-57.14L29.67 0L51.73 0L51.73-4.48L36.04-4.48L36.04-57.14ZM30.19-0.52L30.19-56.62L31.55-56.62L31.55-0.52L30.19-0.52ZM55.29-13.45L55.29-43.68L55.29-43.68Q55.29-48.33 58.22-51.89L58.22-51.89L58.22-51.89Q61.14-55.41 65.58-56.33L65.58-56.33L65.58-56.33Q61.62-54.93 59.18-51.49L59.18-51.49L59.18-51.49Q56.66-48.01 56.66-43.68L56.66-43.68L56.66-13.45L56.66-13.45Q56.66-9.13 59.18-5.65L59.18-5.65L59.18-5.65Q61.62-2.20 65.58-0.80L65.58-0.80L65.58-0.80Q61.14-1.72 58.22-5.25L58.22-5.25L58.22-5.25Q55.29-8.81 55.29-13.45L55.29-13.45ZM70.11-52.65L76.83-52.65L76.83-57.14L68.23-57.14L68.23-57.14Q62.66-57.14 58.70-53.21L58.70-53.21L58.70-53.21Q54.77-49.25 54.77-43.68L54.77-43.68L54.77-13.45L54.77-13.45Q54.77-7.89 58.70-3.92L58.70-3.92L58.70-3.92Q62.66 0 68.23 0L68.23 0L76.83 0L76.83-4.48L70.11-4.48L70.11-4.48Q66.38-4.48 63.78-7.13L63.78-7.13L63.78-7.13Q61.14-9.73 61.14-13.45L61.14-13.45L61.14-43.68L61.14-43.68Q61.14-47.41 63.78-50.01L63.78-50.01L63.78-50.01Q66.38-52.65 70.11-52.65L70.11-52.65ZM81.32-10.09L81.32-47.05L81.32-47.05Q81.32-50.53 83.56-53.21L83.56-53.21L83.56-53.21Q85.76-55.85 89.13-56.46L89.13-56.46L89.13-56.46Q86.28-55.33 84.48-52.81L84.48-52.81L84.48-52.81Q82.68-50.21 82.68-47.05L82.68-47.05L82.68-10.09L82.68-10.09Q82.68-6.93 84.48-4.32L84.48-4.32L84.48-4.32Q86.28-1.80 89.13-0.68L89.13-0.68L89.13-0.68Q85.76-1.28 83.56-3.92L83.56-3.92L83.56-3.92Q81.32-6.61 81.32-10.09L81.32-10.09ZM97.01-10.09L97.01-47.05L97.01-47.05Q97.01-50.97 93.41-52.61L93.41-52.61L93.41-52.61Q95.53-52.37 96.93-50.77L96.93-50.77L96.93-50.77Q98.38-49.21 98.38-47.05L98.38-47.05L98.38-10.09L98.38-10.09Q98.38-7.93 96.93-6.37L96.93-6.37L96.93-6.37Q95.53-4.76 93.41-4.52L93.41-4.52L93.41-4.52Q97.01-6.17 97.01-10.09L97.01-10.09ZM96.49-47.05L96.49-10.09L96.49-10.09Q96.49-8.01 95.13-6.45L95.13-6.45L95.13-6.45Q93.81-4.88 91.81-4.56L91.81-4.56L91.81-4.56Q89.81-4.88 88.49-6.45L88.49-6.45L88.49-6.45Q87.17-8.01 87.17-10.09L87.17-10.09L87.17-47.05L87.17-47.05Q87.17-49.13 88.49-50.69L88.49-50.69L88.49-50.69Q89.81-52.25 91.81-52.57L91.81-52.57L91.81-52.57Q93.81-52.25 95.13-50.69L95.13-50.69L95.13-50.69Q96.49-49.13 96.49-47.05L96.49-47.05ZM92.77-57.14L92.77-57.14Q92.33-57.14 91.81-57.10L91.81-57.10L91.81-57.10Q91.33-57.14 90.89-57.14L90.89-57.14L90.89-57.14Q86.72-57.14 83.76-54.17L83.76-54.17L83.76-54.17Q80.80-51.21 80.80-47.05L80.80-47.05L80.80-10.09L80.80-10.09Q80.80-5.93 83.76-2.96L83.76-2.96L83.76-2.96Q86.72 0 90.89 0L90.89 0L90.89 0Q91.33 0 91.81-0.04L91.81-0.04L91.81-0.04Q92.33 0 92.77 0L92.77 0L92.77 0Q96.93 0 99.90-2.96L99.90-2.96L99.90-2.96Q102.86-5.93 102.86-10.09L102.86-10.09L102.86-47.05L102.86-47.05Q102.86-51.21 99.90-54.17L99.90-54.17L99.90-54.17Q96.93-57.14 92.77-57.14L92.77-57.14ZM113.63-0.52L112.27-0.52L112.27-56.62L113.63-56.62L113.63-0.52ZM128.57-43.68L128.57-13.45L128.57-13.45Q128.57-9.73 125.92-7.13L125.92-7.13L125.92-7.13Q123.28-4.48 119.60-4.48L119.60-4.48L118.12-4.48L118.12-52.65L119.60-52.65L119.60-52.65Q123.28-52.65 125.92-50.01L125.92-50.01L125.92-50.01Q128.57-47.41 128.57-43.68L128.57-43.68ZM130.45-43.68L130.45-13.45L130.45-13.45Q130.45-10.17 128.33-7.65L128.33-7.65L128.33-7.65Q126.20-5.17 123.04-4.60L123.04-4.60L123.04-4.60Q125.72-5.69 127.36-8.05L127.36-8.05L127.36-8.05Q129.09-10.49 129.09-13.45L129.09-13.45L129.09-43.68L129.09-43.68Q129.09-46.65 127.36-49.09L127.36-49.09L127.36-49.09Q125.72-51.45 123.04-52.53L123.04-52.53L123.04-52.53Q126.20-51.93 128.33-49.49L128.33-49.49L128.33-49.49Q130.45-46.97 130.45-43.68L130.45-43.68ZM121.48-57.14L111.75-57.14L111.75 0L121.48 0L121.48 0Q127.04 0 130.97-3.92L130.97-3.92L130.97-3.92Q134.93-7.89 134.93-13.45L134.93-13.45L134.93-43.68L134.93-43.68Q134.93-49.25 130.97-53.21L130.97-53.21L130.97-53.21Q127.04-57.14 121.48-57.14L121.48-57.14ZM165.32-57.14L143.26-57.14L143.26 0L165.32 0L165.32-4.48L149.63-4.48L149.63-26.91L165.32-26.91L165.32-31.35L149.63-31.35L149.63-52.65L165.32-52.65L165.32-57.14ZM143.78-0.52L143.78-56.62L145.14-56.62L145.14-0.52L143.78-0.52Z"></path>
            </g>
            <g id="" class="logo--name svgSloganText_1 sloganBox" transform="scale(1) translate(428.8,254.4)" fill="#ffffff"></g>
         </g>
      </g>
   </g>
</svg>